<svg xmlns="http://www.w3.org/2000/svg" width="312" height="468"><g fill="none" fill-rule="evenodd"><path fill="#66E2DC" d="M78 0c43.078 0 78 34.922 78 78v234h-56C44.772 312 0 267.228 0 212V78C0 34.922 34.922 0 78 0Z"/><path fill="#191826" d="M156 312h78c43.078 0 78 34.922 78 78s-34.922 78-78 78-78-34.922-78-78v-78Z"/><rect width="78" height="78" x="234" y="78" fill="#FFB964" rx="39"/><rect width="78" height="78" x="234" fill="#FA7453" rx="39"/><rect width="156" height="156" y="312" fill="#FA7453" rx="78"/><rect width="78" height="156" x="156" fill="#191826" rx="39"/><rect width="154" height="154" x="157" y="157" stroke="#191826" stroke-width="2" rx="77"/><rect width="76" height="76" x="157" y="196" stroke="#191826" stroke-width="2" rx="38"/></g></svg>